<?xml version="1.0" encoding="utf-8"?>
<!-- Generator: Adobe Illustrator 16.0.0, SVG Export Plug-In . SVG Version: 6.00 Build 0)  -->
<!DOCTYPE svg PUBLIC "-//W3C//DTD SVG 1.1//EN" "http://www.w3.org/Graphics/SVG/1.1/DTD/svg11.dtd">
<svg xmlns="http://www.w3.org/2000/svg" xmlns:xlink="http://www.w3.org/1999/xlink" version="1.1" id="Layer_1" x="0px" y="0px" width="150px" height="150px" viewBox="-14 -20 150 150" enable-background="new 0 0 150 150" xml:space="preserve">
<g>
	<path fill="#AB8F80" d="M106.079,82.497c0.151,2.293,0.66,4.721,1.528,7.283c0.829,2.526,2.413,4.312,4.752,5.361   c3.62,0.816,6.127,1.166,7.523,1.049c0.603,0,0.905,0.205,0.905,0.616c-0.076,0.673-0.885,1.01-2.427,1.01   c-5.531-0.075-11.965-0.302-19.301-0.677c-2.3-0.225-3.373-0.619-3.217-1.182c0-0.467,0.271-0.738,0.812-0.816   c0.581-0.388,0.735-1.826,0.464-4.312l-5.541-61.531h-0.339L62.856,91.305c-1.923,4.424-3.185,6.52-3.787,6.287   c-0.491,0.154-1.697-1.672-3.619-5.48c-5.691-11.545-10.195-20.775-13.512-27.694c-4.976-10.844-10.083-22.194-15.321-34.05h-0.453   l-4.636,55.436c-0.075,2.022-0.113,4.065-0.113,6.127c0.075,1.906,1.073,3.132,2.996,3.676c2.111,0.391,3.58,0.584,4.41,0.584   c0.528,0,0.848,0.205,0.961,0.616c0,0.673-0.695,1.01-2.084,1.01c-5.259-0.15-8.845-0.263-10.761-0.337   c-2.141,0.074-5.371,0.187-9.689,0.337c-1.314,0-1.972-0.337-1.972-1.01c0-0.411,0.395-0.616,1.187-0.616   c0.754,0.117,1.904,0,3.45-0.351c1.846-0.466,3.091-1.652,3.732-3.56c0.452-1.904,0.754-4.024,0.905-6.359l8.358-77.895   c0.226-1.323,0.64-2.022,1.243-2.099c0.64,0,1.224,0.603,1.751,1.808l35.41,75.092L95.31,7.799c0.376-1.172,0.94-1.795,1.694-1.872   c0.485,0,0.84,0.248,1.065,0.743c0.149,0.457,0.261,1.276,0.336,2.457L106.079,82.497z"/>
		c6.287,17.182,15.266,41.187,26.937,72.013c2.07,5.092,3.989,8.513,5.76,10.262c1.618,1.75,3.012,2.74,4.179,2.974
		c1.845,0.583,3.388,0.817,4.63,0.7c0.752,0,1.129,0.243,1.129,0.729c-0.075,0.604-0.848,0.906-2.314,0.906
		c-2.938,0-8.979-0.078-18.126-0.232c-2.335,0-3.502-0.264-3.502-0.791c0-0.488,0.282-0.77,0.848-0.846
		c0.376-0.155,0.678-0.506,0.903-1.051c0.15-0.467,0.074-1.187-0.226-2.16l-10.786-29.427c-0.151-0.467-0.49-0.701-1.017-0.701
		h-24.846c-0.564,0-0.961,0.312-1.187,0.935l-6.944,21.195c-1.055,3.114-1.582,5.781-1.582,7.999c0,1.207,0.527,2.044,1.582,2.512
		c0.864,0.622,1.806,0.934,2.823,0.934h1.129c0.753,0,1.13,0.243,1.13,0.729c-0.076,0.598-0.641,0.897-1.694,0.897
		c-3.802-0.15-6.813-0.263-9.035-0.337c-2.222,0.074-6.569,0.187-13.044,0.337c-1.468,0-2.202-0.3-2.202-0.897
		c0.075-0.485,0.414-0.729,1.016-0.729c1.093,0,2.222-0.078,3.389-0.234c2.598-0.389,4.631-1.615,6.099-3.678
		c1.467-1.984,2.673-4.496,3.614-7.532L425.66,10.527z M437.689,58.315c0.571,0,0.741-0.272,0.508-0.816l-11.012-32.267
		c-0.527-1.826-1.111-1.826-1.751,0L415.27,57.499c-0.156,0.544-0.043,0.816,0.339,0.816H437.689z"/&gt;
</g>
</svg>