<?xml version="1.0" encoding="utf-8"?>
<!-- Generator: Adobe Illustrator 16.0.0, SVG Export Plug-In . SVG Version: 6.00 Build 0)  -->
<!DOCTYPE svg PUBLIC "-//W3C//DTD SVG 1.1//EN" "http://www.w3.org/Graphics/SVG/1.1/DTD/svg11.dtd">
<svg version="1.1" id="Layer_1" xmlns="http://www.w3.org/2000/svg" xmlns:xlink="http://www.w3.org/1999/xlink" x="0px" y="0px"
	 width="483.146px" height="139.326px" viewBox="0 0 483.146 139.326" enable-background="new 0 0 483.146 139.326"
	 xml:space="preserve">
<g>
	<path fill="#AB8F80" d="M106.079,82.497c0.151,2.293,0.66,4.721,1.528,7.283c0.829,2.526,2.413,4.312,4.752,5.361
		c3.62,0.816,6.127,1.166,7.523,1.049c0.603,0,0.905,0.205,0.905,0.616c-0.076,0.673-0.885,1.01-2.427,1.01
		c-5.531-0.075-11.965-0.302-19.301-0.677c-2.3-0.225-3.373-0.619-3.217-1.182c0-0.467,0.271-0.738,0.812-0.816
		c0.581-0.388,0.735-1.826,0.464-4.312l-5.541-61.531h-0.339L62.856,91.305c-1.923,4.424-3.185,6.52-3.787,6.287
		c-0.491,0.154-1.697-1.672-3.619-5.48c-5.691-11.545-10.195-20.775-13.512-27.694c-4.976-10.844-10.083-22.194-15.321-34.05h-0.453
		l-4.636,55.436c-0.075,2.022-0.113,4.065-0.113,6.127c0.075,1.906,1.073,3.132,2.996,3.676c2.111,0.391,3.58,0.584,4.41,0.584
		c0.528,0,0.848,0.205,0.961,0.616c0,0.673-0.695,1.01-2.084,1.01c-5.259-0.15-8.845-0.263-10.761-0.337
		c-2.141,0.074-5.371,0.187-9.689,0.337c-1.314,0-1.972-0.337-1.972-1.01c0-0.411,0.395-0.616,1.187-0.616
		c0.754,0.117,1.904,0,3.45-0.351c1.846-0.466,3.091-1.652,3.732-3.56c0.452-1.904,0.754-4.024,0.905-6.359l8.358-77.895
		c0.226-1.323,0.64-2.022,1.243-2.099c0.64,0,1.224,0.603,1.751,1.808l35.41,75.092L95.31,7.799c0.376-1.172,0.94-1.795,1.694-1.872
		c0.485,0,0.84,0.248,1.065,0.743c0.149,0.457,0.261,1.276,0.336,2.457L106.079,82.497z"/>
	<path fill="#AB8F80" d="M162.185,63.269c-0.117,11.848,0.072,20.492,0.565,25.929c0.151,1.748,0.528,3.166,1.131,4.254
		c0.565,1.204,1.697,1.961,3.395,2.271c1.998,0.303,3.732,0.453,5.204,0.453c0.603,0.113,0.905,0.357,0.905,0.734
		c0,0.604-0.62,0.905-1.859,0.905c-7.585-0.15-12.299-0.263-14.138-0.337c-2.329,0.074-6.103,0.187-11.322,0.337
		c-1.24,0-1.859-0.3-1.859-0.897c0-0.373,0.299-0.615,0.899-0.729c1.161,0,2.322-0.154,3.483-0.467
		c1.162-0.311,1.966-1.069,2.417-2.275c0.45-1.089,0.749-2.508,0.899-4.26c0.412-5.447,0.618-14.102,0.618-25.968V42.212
		c0-16.027-0.081-24.625-0.242-25.792c-0.151-4.007-1.45-6.244-3.896-6.711c-1.393-0.312-2.598-0.467-3.614-0.467
		c-0.603,0-0.903-0.243-0.903-0.729c0-0.598,0.619-0.897,1.858-0.897c5.519,0.078,9.405,0.195,11.657,0.35
		c0.525,0,2.046-0.077,4.562-0.233c2.553-0.078,4.787-0.117,6.702-0.117c1.238,0,1.858,0.299,1.858,0.897
		c-0.076,0.486-0.378,0.729-0.906,0.729c-0.717,0-1.698,0.118-2.943,0.351c-1.471,0.234-2.509,0.877-3.113,1.927
		c-0.679,1.091-1.057,2.726-1.132,4.907c-0.077,1.558-0.114,3.971-0.114,7.241c-0.076,3.349-0.113,9.541-0.113,18.574V63.269z"/>
	<path fill="#AB8F80" d="M281.977,63.269c-0.078,11.848,0.129,20.492,0.619,25.929c0.149,1.748,0.524,3.166,1.125,4.254
		c0.525,1.204,1.65,1.961,3.377,2.271c1.988,0.303,3.714,0.453,5.178,0.453c0.6,0.113,0.9,0.357,0.9,0.734
		c0,0.604-0.62,0.905-1.859,0.905c-7.586-0.15-12.316-0.263-14.194-0.337c-2.29,0.074-6.046,0.187-11.265,0.337
		c-1.24,0-1.859-0.3-1.859-0.897c0-0.373,0.301-0.615,0.904-0.729c1.17,0,2.34-0.154,3.509-0.467
		c1.13-0.311,1.942-1.069,2.433-2.275c0.452-1.089,0.754-2.508,0.906-4.26c0.377-5.447,0.564-14.102,0.564-25.969V50.672
		c-0.075-0.466-0.302-0.7-0.679-0.7h-49.113c-0.454,0-0.679,0.234-0.679,0.7v12.547c-0.117,11.867,0.072,20.521,0.565,25.969
		c0.151,1.752,0.528,3.171,1.131,4.26c0.565,1.206,1.697,1.965,3.395,2.275c1.998,0.303,3.732,0.453,5.204,0.453
		c0.603,0.113,0.905,0.357,0.905,0.734c0,0.604-0.62,0.905-1.859,0.905c-7.585-0.15-12.299-0.263-14.138-0.337
		c-2.329,0.074-6.103,0.187-11.322,0.337c-1.24,0-1.859-0.3-1.859-0.897c0-0.373,0.299-0.615,0.899-0.729
		c1.161,0,2.322-0.154,3.483-0.467c1.162-0.311,1.966-1.069,2.417-2.275c0.45-1.089,0.749-2.508,0.899-4.26
		c0.412-5.447,0.618-14.102,0.618-25.968V42.212c0-16.027-0.081-24.625-0.242-25.792c-0.076-2.101-0.415-3.657-1.016-4.669
		c-0.678-1.128-1.996-1.847-3.953-2.159c-1.205-0.233-2.503-0.351-3.896-0.351c-0.64,0-0.959-0.243-0.959-0.729
		c0-0.598,0.619-0.897,1.858-0.897c6.683,0.078,11.038,0.195,13.065,0.35c0.525,0,2.046-0.077,4.562-0.233
		c2.553-0.078,4.786-0.117,6.702-0.117c1.238,0,1.858,0.299,1.858,0.897c-0.076,0.486-0.377,0.729-0.905,0.729
		c-0.717,0-1.698,0.118-2.942,0.351c-1.471,0.233-2.509,0.876-3.112,1.926c-0.679,1.09-1.057,2.724-1.132,4.904
		c-0.077,1.557-0.114,3.971-0.114,7.239c-0.076,3.348-0.113,9.536-0.113,18.565v2.511c0,0.544,0.226,0.778,0.679,0.7h49.113
		c0.377,0.078,0.604-0.156,0.679-0.7v-2.511c0-16.035-0.075-24.636-0.227-25.804c-0.075-2.101-0.415-3.658-1.019-4.67
		c-0.716-1.128-2.036-1.848-3.96-2.16c-1.245-0.233-2.546-0.351-3.904-0.351c-0.641,0-0.961-0.243-0.961-0.729
		c0-0.598,0.619-0.897,1.858-0.897c6.685,0.078,11.022,0.195,13.013,0.35c0.562,0,2.103-0.077,4.619-0.233
		c2.553-0.078,4.787-0.117,6.703-0.117c1.238,0,1.858,0.299,1.858,0.897c-0.075,0.486-0.394,0.729-0.956,0.729
		c-0.674,0-1.631,0.118-2.867,0.351c-1.462,0.234-2.491,0.877-3.09,1.927c-0.676,1.091-1.051,2.726-1.125,4.907
		c-0.113,1.558-0.17,3.971-0.17,7.241c-0.074,3.349-0.111,9.541-0.111,18.574V63.269z"/>
	<path fill="#AB8F80" d="M341.823,99.506c-5.545,0-10.768-1.068-15.666-3.205c-0.76-0.426-1.216-0.912-1.367-1.456
		c-0.229-0.544-0.342-1.572-0.342-3.087c0.075-6.291,0.265-10.505,0.568-12.643c0.075-1.28,0.379-1.922,0.909-1.922
		c0.567,0,0.853,0.429,0.853,1.283c-0.078,1.203,0.036,2.68,0.342,4.428c0.986,4.391,3.111,7.498,6.377,9.322
		c3.263,1.982,6.887,2.934,10.873,2.855c5.579-0.077,9.772-1.786,12.582-5.127c2.732-3.186,4.1-6.76,4.1-10.723
		c0-4-0.96-7.594-2.877-10.781c-2.03-3.068-5.51-6.643-10.436-10.722l-5.189-4.428c-5.941-5.166-9.945-9.77-12.013-13.811
		c-2.071-4.079-3.068-8.099-2.989-12.062c0.3-13.907,8.279-21.074,23.939-21.502c2.296,0,4.328,0.079,6.097,0.233
		c1.693,0.272,3.238,0.603,4.631,0.99c1.994,0.389,3.35,0.583,4.065,0.583c0.752,0,1.129,0.271,1.129,0.812
		c-0.143,0.502-0.283,4.698-0.426,12.584c0,1.865-0.262,2.797-0.784,2.797c-0.636,0-0.952-0.524-0.952-1.573
		c0-0.816-0.151-1.842-0.454-3.078c-0.302-1.274-0.643-2.222-1.02-2.841c-0.151-0.424-0.473-0.985-0.963-1.681
		c-0.529-0.656-1.379-1.333-2.55-2.028c-0.982-0.772-2.398-1.41-4.249-1.913c-1.851-0.463-4.098-0.696-6.741-0.696
		c-4.041,0-7.402,1.186-10.084,3.554c-2.72,2.409-4.117,5.847-4.191,10.314c-0.079,3.146,0.919,6.158,2.991,9.033
		c2.106,2.797,5.812,6.468,11.118,11.013l3.218,2.622c6.697,5.401,11.25,10.237,13.658,14.51c2.223,4.312,3.295,8.819,3.218,13.52
		c0,2.525-0.619,5.672-1.855,9.439c-0.676,1.748-1.632,3.535-2.869,5.361c-1.312,1.748-3,3.42-5.062,5.012
		C354.213,97.834,348.35,99.506,341.823,99.506z"/>
	<path fill="#AB8F80" d="M425.66,10.527c1.242-3.222,2.09-4.755,2.541-4.601c0.564-0.155,1.431,1.283,2.598,4.315
		c6.287,17.182,15.266,41.187,26.937,72.013c2.07,5.092,3.989,8.513,5.76,10.262c1.618,1.75,3.012,2.74,4.179,2.974
		c1.845,0.583,3.388,0.817,4.63,0.7c0.752,0,1.129,0.243,1.129,0.729c-0.075,0.604-0.848,0.906-2.314,0.906
		c-2.938,0-8.979-0.078-18.126-0.232c-2.335,0-3.502-0.264-3.502-0.791c0-0.488,0.282-0.77,0.848-0.846
		c0.376-0.155,0.678-0.506,0.903-1.051c0.15-0.467,0.074-1.187-0.226-2.16l-10.786-29.427c-0.151-0.467-0.49-0.701-1.017-0.701
		h-24.846c-0.564,0-0.961,0.312-1.187,0.935l-6.944,21.195c-1.055,3.114-1.582,5.781-1.582,7.999c0,1.207,0.527,2.044,1.582,2.512
		c0.864,0.622,1.806,0.934,2.823,0.934h1.129c0.753,0,1.13,0.243,1.13,0.729c-0.076,0.598-0.641,0.897-1.694,0.897
		c-3.802-0.15-6.813-0.263-9.035-0.337c-2.222,0.074-6.569,0.187-13.044,0.337c-1.468,0-2.202-0.3-2.202-0.897
		c0.075-0.485,0.414-0.729,1.016-0.729c1.093,0,2.222-0.078,3.389-0.234c2.598-0.389,4.631-1.615,6.099-3.678
		c1.467-1.984,2.673-4.496,3.614-7.532L425.66,10.527z M437.689,58.315c0.571,0,0.741-0.272,0.508-0.816l-11.012-32.267
		c-0.527-1.826-1.111-1.826-1.751,0L415.27,57.499c-0.156,0.544-0.043,0.816,0.339,0.816H437.689z"/>
</g>
<g>
	<path fill="#64564A" d="M164.151,127.603h-11.177l-2.46,5.438h-1.257l8.663-19.103h1.229l8.745,19.103h-1.257L164.151,127.603z
		 M163.632,126.456l-5.11-11.205l-5.056,11.205H163.632z"/>
	<path fill="#64564A" d="M185.362,113.939v1.12h-11.177v7.625h9.948v1.147h-9.948v8.09h11.533v1.12h-12.681v-19.103H185.362z"/>
	<path fill="#64564A" d="M197.389,115.086c-3.033,0-5.001,1.258-5.001,3.252c0,5.821,11.232,2.815,11.177,9.866
		c0,2.951-2.651,4.864-6.641,4.864c-2.542,0-5.138-1.12-6.805-2.76l0.601-1.012c1.558,1.612,3.99,2.597,6.231,2.597
		c3.279,0,5.384-1.422,5.384-3.662c0.055-5.985-11.177-2.925-11.177-9.812c0-2.76,2.514-4.536,6.285-4.536
		c1.94,0,4.045,0.629,5.466,1.558l-0.519,1.038C200.969,115.551,199.029,115.086,197.389,115.086z"/>
	<path fill="#64564A" d="M221.469,113.939v1.12h-6.45v17.982h-1.148v-17.982h-6.449v-1.12H221.469z"/>
	<path fill="#64564A" d="M227.867,113.939v8.964h12.927v-8.964h1.147v19.103h-1.147v-9.019h-12.927v9.019h-1.148v-19.103H227.867z"
		/>
	<path fill="#64564A" d="M262.468,113.939v1.12h-11.177v7.625h9.947v1.147h-9.947v8.09h11.532v1.12h-12.681v-19.103H262.468z"/>
	<path fill="#64564A" d="M280.563,113.939v1.12h-6.449v17.982h-1.148v-17.982h-6.449v-1.12H280.563z"/>
	<path fill="#64564A" d="M286.96,113.939v19.103h-1.147v-19.103H286.96z"/>
	<path fill="#64564A" d="M303.032,115.004c-4.838,0-8.745,3.771-8.745,8.444c0,4.701,3.907,8.5,8.745,8.5
		c2.268,0,4.399-0.875,6.012-2.323l0.711,0.792c-1.776,1.641-4.209,2.651-6.75,2.651c-5.438,0-9.866-4.291-9.866-9.593
		c0-5.301,4.428-9.564,9.866-9.564c2.568,0,4.946,0.983,6.723,2.568l-0.684,0.875C307.458,115.879,305.299,115.004,303.032,115.004z
		"/>
	<path fill="#64564A" d="M321.043,115.086c-3.033,0-5.001,1.258-5.001,3.252c0,5.821,11.232,2.815,11.178,9.866
		c0,2.951-2.651,4.864-6.641,4.864c-2.542,0-5.139-1.12-6.806-2.76l0.602-1.012c1.558,1.612,3.99,2.597,6.23,2.597
		c3.28,0,5.384-1.422,5.384-3.662c0.055-5.985-11.177-2.925-11.177-9.812c0-2.76,2.514-4.536,6.285-4.536
		c1.94,0,4.045,0.629,5.466,1.558l-0.52,1.038C324.624,115.551,322.683,115.086,321.043,115.086z"/>
</g>
</svg>
